<?xml version="1.0" encoding="UTF-8"?>
<svg id="avatar-1" xmlns="http://www.w3.org/2000/svg" xmlns:xlink="http://www.w3.org/1999/xlink" viewBox="0 0 128 128">
  <!-- Alapnian Sass Logo | Copyright (c) 2025 Alapnian | https://alapnian.com | sassdev@alapnian.com -->
  <defs>
    <linearGradient id="linear-gradient" x1="64" y1="127.86" x2="64" y2=".14" gradientUnits="userSpaceOnUse">
      <stop offset="0" stop-color="#b9497b"/>
      <stop offset="1" stop-color="#cd6799"/>
    </linearGradient>
  </defs>
  <rect x="0" y=".14" width="128" height="127.72" style="fill: url(#linear-gradient);"/>
  <path d="M82.59,46.94l-.03.04c-6.3,5.66-11.55,10.08-15.76,13.26-8.25,5.76-14.65,9.74-19.2,11.92.12-1.19.88-2.76,2.26-4.7.81-1.13,1.6-2.15,2.35-3.05.75-.91,2-2.4,3.76-4.46,1.75-2.07,3.29-3.92,4.61-5.55h0c.98-.84,1-2.35.05-3.23l-1.27-1.17c-.75-.69-1.9-.66-2.62.05l-.02.02c-.69-1.63-1.63-2.47-2.82-2.54-3.13,0-6.81,1.19-11.04,3.57-4.23,2.38-8.07,5.19-11.51,8.41-3.45,3.23-6.41,6.52-8.88,9.87-2.47,3.35-3.71,5.84-3.71,7.47s.38,2.88,1.13,3.76,1.36,1.39,1.83,1.55c.47.16.86.27,1.17.33,1.88,0,4.34-1.08,7.38-3.24,3.04-2.16,5.18-3.88,6.44-5.17,1.25-1.28,2.29-2.36,3.1-3.24.25-.25.42-.38.52-.38s.14.09.14.28l-.75,6.02c0,1.94.25,3.29.75,4.04.5.75,1.35,1.13,2.54,1.13s4.2-1.72,9.02-5.17c2-1.44,4.28-3.18,6.81-5.22,2.54-2.04,4.79-3.88,6.77-5.55.34-.29.69-.58,1.03-.87.02,0,.03-.01.05-.02l12.31-9.49c.88-.69,1.64-1.03,2.3-1.03s.99.22.99.66c0,1.63-.38,3.81-1.13,6.53-.75,2.73-2.05,5.42-3.9,8.08-1.85,2.66-3.85,3.99-6.02,3.99s-3.81-.53-4.93-1.6c-.38-.44-.74-.99-1.08-1.64-.06-.11-.11-.21-.16-.31-.4-.84-1.52-1.1-2.18-.45,0,0,0,0-.01.01-.47.47-.7.99-.7,1.55,0,7.08,2.94,10.62,8.84,10.62,2.38,0,5.73-1.28,10.06-3.85,4.32-2.57,8.38-5.4,12.17-8.51,3.79-3.1,7.24-5.97,10.34-8.6s4.71-3.95,4.84-3.95c.56-.5.85-1.06.85-1.69v-.02c0-.91-1.05-1.43-1.77-.88l-1.33,1c-7.27,5.39-13.25,9.27-17.95,11.65-.38.19-.63.28-.75.28s-.19-.06-.19-.19.36-.99,1.08-2.58c.72-1.6,1.42-3.93,2.11-7,.35-1.55.61-3.19.78-4.92.31-3.09-1.56-5.99-4.47-7.06h0c-1.51-.56-3.21-.06-4.18,1.23ZM37.03,68.22c-3.89,3.1-6.19,4.63-6.93,4.61-.09,0-.17-.09-.17-.18,0-1.06,1.39-3.12,4.18-6.16,2.79-3.04,6.09-5.92,9.92-8.65,3.82-2.73,6.92-4.09,9.3-4.09.19,0,.28.05.28.14s-.13.27-.38.52l-5.26,4.61c-3.45,3.07-7.1,6.14-10.95,9.21Z" style="fill: #f8ebf2;"/>
</svg>