<?xml version="1.0" encoding="UTF-8"?>
<svg id="AlapnianMark" xmlns="http://www.w3.org/2000/svg" xmlns:xlink="http://www.w3.org/1999/xlink" viewBox="0 0 128 52.12">
  <!-- Alapnian Sass Logo | Copyright (c) 2025 Alapnian | https://alapnian.com | sassdev@alapnian.com -->
  <defs>
    <linearGradient id="linear-gradient" x1="64" y1="52.35" x2="64" y2="0" gradientUnits="userSpaceOnUse">
      <stop offset="0" stop-color="#b9497b"/>
      <stop offset="1" stop-color="#cd6799"/>
    </linearGradient>
  </defs>
  <path d="M90.29,2.06l-.04.05c-8.91,8.01-16.34,14.25-22.3,18.76-11.67,8.15-20.72,13.78-27.15,16.86.18-1.68,1.24-3.9,3.19-6.65,1.15-1.59,2.26-3.03,3.32-4.32,1.06-1.28,2.83-3.39,5.32-6.31,2.48-2.92,4.65-5.54,6.51-7.84h0c1.39-1.19,1.42-3.33.07-4.57l-1.79-1.65c-1.06-.97-2.69-.94-3.7.07l-.03.03c-.98-2.3-2.31-3.5-3.99-3.59-4.43,0-9.64,1.68-15.62,5.05-5.98,3.37-11.41,7.33-16.28,11.9-4.87,4.56-9.06,9.22-12.56,13.96-3.5,4.74-5.25,8.26-5.25,10.57s.53,4.08,1.59,5.32,1.93,1.97,2.59,2.19c.66.22,1.22.38,1.66.47,2.66,0,6.14-1.53,10.43-4.59,4.3-3.06,7.33-5.49,9.1-7.31,1.77-1.82,3.23-3.34,4.39-4.59.35-.35.6-.53.73-.53s.2.13.2.4l-1.06,8.51c0,2.75.35,4.65,1.06,5.72.71,1.06,1.9,1.59,3.59,1.59s5.94-2.44,12.76-7.31c2.84-2.04,6.05-4.5,9.64-7.38,3.59-2.88,6.78-5.49,9.57-7.84.48-.41.97-.82,1.46-1.23.02-.01.05-.02.07-.03l17.41-13.42c1.24-.97,2.33-1.46,3.26-1.46s1.4.31,1.4.93c0,2.31-.53,5.38-1.6,9.24-1.06,3.85-2.9,7.67-5.52,11.43-2.61,3.77-5.45,5.65-8.51,5.65s-5.38-.75-6.98-2.26c-.53-.62-1.04-1.4-1.53-2.33-.08-.16-.16-.3-.22-.45-.57-1.19-2.14-1.56-3.08-.64,0,0-.01.01-.02.02-.66.66-1,1.4-1,2.19,0,10.01,4.16,15.02,12.49,15.02,3.37,0,8.11-1.82,14.22-5.45,6.11-3.63,11.85-7.64,17.21-12.03,5.36-4.39,10.23-8.44,14.62-12.16s6.67-5.58,6.85-5.58c.8-.71,1.2-1.51,1.2-2.39v-.03c0-1.29-1.48-2.02-2.51-1.25l-1.88,1.41c-10.28,7.62-18.74,13.12-25.39,16.48-.53.27-.89.4-1.06.4s-.27-.09-.27-.27.51-1.4,1.53-3.66c1.02-2.26,2.01-5.56,2.99-9.9.49-2.19.86-4.51,1.1-6.96.44-4.37-2.2-8.47-6.32-9.99h0c-2.14-.79-4.54-.08-5.9,1.74ZM25.85,32.15c-5.49,4.38-8.76,6.55-9.8,6.51-.13,0-.24-.13-.24-.26,0-1.5,1.97-4.41,5.92-8.71,3.94-4.3,8.62-8.37,14.02-12.23,5.4-3.85,9.79-5.78,13.16-5.78.27,0,.4.07.4.2s-.18.38-.53.73l-7.44,6.51c-4.87,4.34-10.04,8.69-15.48,13.03Z" style="fill: url(#linear-gradient);"/>
</svg>