<?xml version="1.0" encoding="UTF-8"?>
<svg id="AlapnianSassSelectorModuleIcon" xmlns="http://www.w3.org/2000/svg" xmlns:xlink="http://www.w3.org/1999/xlink" viewBox="0 0 128 128">
  <!-- Alapnian Sass Selector Module Icon | Copyright (c) 2025 Alapnian | https://alapnian.com | sassdev@alapnian.com -->
  <defs>
    <linearGradient id="linear-gradient" x1="64" y1="127.32" x2="64" y2=".68" gradientUnits="userSpaceOnUse">
      <stop offset="0" stop-color="#b9497b"/>
      <stop offset="1" stop-color="#cd6799"/>
    </linearGradient>
  </defs>
  <title>Alapnian Sass Selector Module Icon</title>
  <rect x=".54" y=".68" width="126.92" height="126.65" rx="27" ry="27" style="fill: url(#linear-gradient);"/>
  <g>
    <path d="M86.33,90.19c-.59,0-1.19-.22-1.66-.66-.94-.91-.94-2.38-.03-3.32,5.35-5.44,8.29-12.63,8.29-20.27,0-15.95-12.98-28.93-28.93-28.93s-28.93,12.98-28.93,28.93c0,7.6,2.91,14.76,8.23,20.2.91.94.88,2.41-.03,3.32-.94.91-2.41.88-3.32-.03-6.16-6.32-9.57-14.67-9.57-23.49,0-18.55,15.07-33.62,33.62-33.62s33.62,15.07,33.62,33.62c0,8.85-3.41,17.23-9.63,23.55-.44.47-1.06.69-1.66.69Z" style="fill: #f8ebf2;"/>
    <path d="M64,95.66c6.7,0,12.13-5.43,12.13-12.13s-5.43-12.13-12.13-12.13-12.13,5.43-12.13,12.13,5.43,12.13,12.13,12.13Z" style="fill: #f8ebf2;"/>
    <path d="M76.51,53.45c-3.44,0-6.25,2.81-6.25,6.25v2.35c0,2.16,1.75,3.91,3.91,3.91h2.35c3.44,0,6.25-2.81,6.25-6.25s-2.81-6.25-6.25-6.25Z" style="fill: #f8ebf2;"/>
  </g>
</svg>