<?xml version="1.0" encoding="UTF-8"?>
<svg id="AlapnianSassThrowModuleIcon" xmlns="http://www.w3.org/2000/svg" xmlns:xlink="http://www.w3.org/1999/xlink" viewBox="0 0 128 128">
  <!-- Alapnian Sass Throw Module Icon | Copyright (c) 2025 Alapnian | https://alapnian.com | sassdev@alapnian.com -->
  <defs>
    <linearGradient id="linear-gradient" x1="64" y1="127.32" x2="64" y2=".68" gradientUnits="userSpaceOnUse">
      <stop offset="0" stop-color="#b9497b"/>
      <stop offset="1" stop-color="#cd6799"/>
    </linearGradient>
  </defs>
  <title>Alapnian Sass Throw Module Icon</title>
  <rect x=".54" y=".68" width="126.92" height="126.65" rx="27" ry="27" style="fill: url(#linear-gradient);"/>
  <path d="M87.76,44.53l-18.81-10.86c-3.07-1.77-6.87-1.77-9.97,0l-18.78,10.86c-3.07,1.77-4.97,5.07-4.97,8.64v21.66c0,3.55,1.9,6.84,4.97,8.64l18.81,10.86c3.07,1.77,6.87,1.77,9.97,0l18.81-10.86c3.07-1.77,4.97-5.07,4.97-8.64v-21.66c-.03-3.58-1.93-6.84-5-8.64ZM61.61,50.54c0-1.3,1.08-2.37,2.37-2.37s2.37,1.08,2.37,2.37v16.62c0,1.3-1.08,2.37-2.37,2.37s-2.37-1.08-2.37-2.37v-16.62ZM66.9,78.66c-.16.38-.38.73-.66,1.04-.6.6-1.39.92-2.25.92-.41,0-.82-.09-1.2-.25-.41-.16-.73-.38-1.04-.66-.28-.32-.51-.66-.7-1.04-.16-.38-.22-.79-.22-1.2,0-.82.32-1.65.92-2.25.32-.28.63-.51,1.04-.66,1.17-.51,2.56-.22,3.45.66.28.32.51.63.66,1.04.16.38.25.79.25,1.2s-.09.82-.25,1.2Z" style="fill: #f8ebf2;"/>
</svg>