<?xml version="1.0" encoding="UTF-8"?>
<svg id="AlapnianSassColorModuleIcon" xmlns="http://www.w3.org/2000/svg" xmlns:xlink="http://www.w3.org/1999/xlink" viewBox="0 0 128 128">
  <!-- Alapnian Sass Color Module Icon | Copyright (c) 2025 Alapnian | https://alapnian.com | sassdev@alapnian.com -->
  <defs>
    <linearGradient id="linear-gradient" x1="64" y1="127.32" x2="64" y2=".68" gradientUnits="userSpaceOnUse">
      <stop offset="0" stop-color="#b9497b"/>
      <stop offset="1" stop-color="#cd6799"/>
    </linearGradient>
  </defs>
  <title>Alapnian Sass Color Module Icon</title>
  <rect x=".54" y=".68" width="126.92" height="126.65" rx="27" ry="27" style="fill: url(#linear-gradient);"/>
  <g>
    <path d="M70.33,76.66c0,5.6-2.44,10.67-6.33,14.12-3.36,3.04-7.79,4.88-12.67,4.88-10.48,0-19-8.52-19-19,0-6.41,3.21-12.09,8.09-15.52.79-.55,1.85-.17,2.27.69,2.99,6.08,8.49,10.62,15.03,12.4,1.99.57,4.08.85,6.27.85,1.54,0,3.02-.15,4.46-.42.91-.17,1.82.41,1.86,1.34,0,.22.01.44.01.66Z" style="fill: #f8ebf2;"/>
    <path d="M83,51.34c0,2.47-.47,4.84-1.33,7-2.18,5.51-6.87,9.75-12.67,11.34-1.58.44-3.26.66-5,.66s-3.42-.22-5-.66c-5.79-1.58-10.48-5.83-12.67-11.34-.85-2.15-1.33-4.53-1.33-7,0-10.48,8.52-19,19-19s19,8.52,19,19Z" style="fill: #f8ebf2;"/>
    <path d="M95.66,76.66c0,10.48-8.52,19-19,19-2.36,0-4.63-.43-6.71-1.22-1.01-.38-1.2-1.67-.49-2.49,3.62-4.22,5.62-9.63,5.62-15.28,0-1.08-.09-2.15-.25-3.17-.09-.58.2-1.16.72-1.44,4.19-2.32,7.62-5.88,9.75-10.22.42-.86,1.49-1.24,2.27-.69,4.88,3.43,8.09,9.11,8.09,15.52Z" style="fill: #f8ebf2;"/>
  </g>
</svg>