<?xml version="1.0" encoding="UTF-8"?>
<svg id="AlapnianSassListModuleIcon" xmlns="http://www.w3.org/2000/svg" xmlns:xlink="http://www.w3.org/1999/xlink" viewBox="0 0 128 128">
  <!-- Alapnian Sass List Module Icon | Copyright (c) 2025 Alapnian | https://alapnian.com | sassdev@alapnian.com -->
  <defs>
    <linearGradient id="linear-gradient" x1="64" y1="127.32" x2="64" y2=".68" gradientUnits="userSpaceOnUse">
      <stop offset="0" stop-color="#b9497b"/>
      <stop offset="1" stop-color="#cd6799"/>
    </linearGradient>
  </defs>
  <title>Alapnian Sass List Module Icon</title>
  <rect x=".54" y=".68" width="126.92" height="126.65" rx="27" ry="27" style="fill: url(#linear-gradient);"/>
  <g>
    <path d="M38.49,82.67c-3.42,0-6.22-2.8-6.22-6.22s2.8-6.22,6.22-6.22,6.22,2.8,6.22,6.22-2.8,6.22-6.22,6.22Z" style="fill: #f8ebf2;"/>
    <path d="M38.49,57.78c-3.42,0-6.22-2.8-6.22-6.22s2.8-6.22,6.22-6.22,6.22,2.8,6.22,6.22-2.8,6.22-6.22,6.22Z" style="fill: #f8ebf2;"/>
    <path d="M91.06,81.11h-34.22c-2.55,0-4.67-2.12-4.67-4.67s2.12-4.67,4.67-4.67h34.22c2.55,0,4.67,2.12,4.67,4.67s-2.12,4.67-4.67,4.67Z" style="fill: #f8ebf2;"/>
    <path d="M91.06,56.22h-34.22c-2.55,0-4.67-2.12-4.67-4.67s2.12-4.67,4.67-4.67h34.22c2.55,0,4.67,2.12,4.67,4.67s-2.12,4.67-4.67,4.67Z" style="fill: #f8ebf2;"/>
  </g>
</svg>